<svg width="110mm" height="110mm" viewBox="0 0 110 110" xmlns="http://www.w3.org/2000/svg"><circle cx="55" cy="55" r="55" style="fill:#00f;opacity:.24797;stroke-width:3.1181"/><path style="fill-opacity:.62308;fill:#1a1a1a;stroke-width:4;stroke:#000" d="M41.451 49.81h26.458v26.458H41.451z"/><g style="fill:none;stroke-width:4;stroke:#000"><path d="M46.743 76.27v11.906M62.618 76.27v11.906M54.68 76.27v6.615M67.909 63.04h6.615M41.451 63.04h-6.615M54.68 76.27v5.292M54.68 49.81v-6.615M41.451 55.1H30.868M41.451 70.98H21.607L11.024 88.178M67.909 70.98h19.844l10.583 17.198M67.909 55.1h10.583M46.743 49.81V8.8l-6.615-6.615M62.618 49.81V8.8l6.615-6.615"/></g><circle cx="46.743" cy="55.1" r=".671" style="fill-opacity:.62308;fill:#1a1a1a;stroke-width:2;stroke:#000"/></svg>