<svg viewBox="0 0 57.975 8.308" xmlns="http://www.w3.org/2000/svg"><g style="stroke-width:.26458" aria-label="ramanlabs"><path d="M.519 4.65q0-.635.307-1.132.317-.508.847-.805.529-.296 1.164-.296t.942.212q.317.2.243.486-.032.149-.127.233-.085.074-.201.095-.116.022-.254-.01-.677-.138-1.217-.021-.54.116-.857.434-.307.317-.307.804zm.01 3.62q-.253 0-.391-.128Q0 8.005 0 7.74V3.01q0-.254.138-.392T.53 2.48q.264 0 .391.138.138.127.138.392v4.73q0 .254-.138.392-.127.137-.391.137zM7.133 8.31q-.773 0-1.386-.381-.614-.392-.974-1.048-.35-.667-.35-1.503 0-.836.382-1.502.391-.667 1.047-1.048.667-.392 1.493-.392.825 0 1.481.392.656.38 1.037 1.048.392.666.392 1.502h-.413q0 .836-.36 1.503-.349.656-.963 1.048-.613.381-1.386.381zm.212-.952q.54 0 .963-.254.423-.265.666-.71.244-.455.244-1.016 0-.571-.244-1.016-.243-.455-.666-.709-.424-.264-.963-.264-.53 0-.963.264-.424.254-.678.71-.243.444-.243 1.015 0 .561.243 1.016.254.445.678.71.434.254.963.254zm2.37.92q-.232 0-.391-.148-.148-.159-.148-.391v-1.62l.2-1.121.88.38v2.36q0 .233-.16.392-.148.148-.38.148zM19.463 8.28q-.233 0-.392-.148-.148-.159-.148-.392V4.713q0-.666-.328-.984-.328-.328-.857-.328-.55 0-.91.381-.35.381-.35.974H15.6q0-.688.296-1.207.297-.529.826-.825.54-.297 1.228-.297.603 0 1.069.265.465.265.72.783.264.508.264 1.238V7.74q0 .233-.148.392-.149.148-.392.148zm-7.06 0q-.232 0-.39-.148-.149-.159-.149-.392V3.03q0-.243.148-.39.16-.15.392-.15.243 0 .391.15t.149.39v4.71q0 .233-.149.392-.148.148-.391.148zm3.536 0q-.233 0-.392-.148-.148-.159-.148-.392V4.713q0-.666-.328-.984-.328-.328-.857-.328-.55 0-.91.381t-.36.974h-.667q0-.688.275-1.207.275-.529.762-.825.487-.297 1.111-.297.603 0 1.07.265.465.265.719.783.264.508.264 1.238V7.74q0 .233-.148.392-.148.148-.391.148zM24.204 8.31q-.773 0-1.386-.381-.614-.392-.974-1.048-.35-.667-.35-1.503 0-.836.382-1.502.391-.667 1.047-1.048.667-.392 1.493-.392.825 0 1.481.392.656.38 1.037 1.048.392.666.392 1.502h-.413q0 .836-.36 1.503-.349.656-.963 1.048-.613.381-1.386.381zm.212-.952q.54 0 .963-.254.423-.265.666-.71.244-.455.244-1.016 0-.571-.244-1.016-.243-.455-.666-.709-.424-.264-.963-.264-.53 0-.963.264-.424.254-.678.71-.243.444-.243 1.015 0 .561.243 1.016.254.445.678.71.434.254.963.254zm2.37.92q-.232 0-.391-.148-.148-.159-.148-.391v-1.62l.2-1.121.88.38v2.36q0 .233-.16.392-.148.148-.38.148zM33.824 8.28q-.233 0-.392-.148-.148-.159-.148-.392V5.137q0-.603-.222-.984t-.603-.561q-.37-.19-.858-.19-.444 0-.804.179-.36.18-.571.487-.212.296-.212.688h-.667q0-.667.318-1.186.328-.529.889-.836t1.26-.307q.73 0 1.3.318.583.307.911.91.339.603.339 1.482V7.74q0 .233-.16.392-.147.148-.38.148zm-4.35 0q-.233 0-.391-.148-.148-.159-.148-.392V3.02q0-.243.148-.392.158-.148.391-.148.244 0 .392.148.148.149.148.392v4.72q0 .233-.148.392-.148.148-.392.148z"/><path d="M64.639 154.54q-.466 0-.826-.254t-.56-.688q-.202-.444-.202-1.016v-5.778q0-.233.149-.381.148-.149.38-.149.233 0 .382.149.148.148.148.38v5.78q0 .39.148.645.148.254.381.254h.265q.211 0 .338.148.138.148.138.38t-.201.382q-.201.148-.519.148zM68.534 154.58q-.773 0-1.386-.381-.614-.392-.974-1.048-.35-.667-.35-1.503 0-.836.382-1.502.391-.667 1.047-1.048.667-.392 1.493-.392.825 0 1.481.392.656.38 1.037 1.048.392.666.392 1.502h-.413q0 .836-.36 1.503-.349.656-.963 1.048-.613.381-1.386.381zm.212-.953q.54 0 .963-.253.423-.265.667-.71.243-.455.243-1.016 0-.571-.243-1.016-.244-.455-.667-.709-.424-.264-.963-.264-.53 0-.963.264-.424.254-.678.71-.243.444-.243 1.015 0 .561.243 1.016.254.445.678.71.434.254.963.254zm2.37.921q-.232 0-.391-.148-.148-.159-.148-.391v-1.62l.2-1.121.88.38v2.36q0 .233-.16.392-.148.148-.38.148zM76.175 154.58q-.826 0-1.482-.381-.656-.392-1.037-1.058-.38-.667-.391-1.503v-4.826q0-.244.148-.392.158-.148.391-.148.244 0 .392.148.148.148.148.392v2.857q.37-.444.889-.698.53-.265 1.154-.265.772 0 1.386.392.614.38.963 1.048.36.656.36 1.492t-.392 1.503q-.38.666-1.037 1.058-.656.381-1.492.381zm0-.953q.54 0 .963-.253.423-.265.667-.72.254-.455.254-1.016 0-.572-.254-1.016-.244-.445-.667-.699-.423-.264-.963-.264-.53 0-.963.264-.423.254-.667.699-.243.444-.243 1.016 0 .56.243 1.016.244.455.667.72.434.254.963.254zM82.811 154.58q-.74 0-1.376-.222-.624-.233-.973-.582-.16-.17-.138-.381.032-.223.212-.36.211-.17.412-.138.212.021.36.18.18.201.572.381.402.17.889.17.614 0 .931-.202.328-.2.339-.518.01-.318-.307-.55-.307-.233-1.133-.381-1.069-.212-1.555-.635-.477-.424-.477-1.038 0-.54.318-.889.317-.36.815-.529.497-.18 1.037-.18.699 0 1.238.222t.858.614q.148.17.137.36-.01.18-.18.307-.17.116-.402.074-.233-.042-.392-.19-.264-.254-.571-.35-.307-.095-.71-.095-.465 0-.793.159-.317.159-.317.466 0 .19.095.349.106.148.402.275.296.116.868.233.794.159 1.249.402.465.243.666.571.201.318.201.741 0 .487-.264.879-.254.391-.762.624-.498.233-1.249.233z" style="fill:#007af3" transform="translate(-27.111 -146.27)"/></g></svg>